HIERARCHY
ROOT Hips
{
	OFFSET -0.001795 -0.223333 0.028219
	CHANNELS 6 Xposition Yposition Zposition Zrotation Yrotation Xrotation 
	JOINT LeftUpLeg
	{
		OFFSET 0.069520 -0.091406 -0.006815
		CHANNELS 3 Zrotation Yrotation Xrotation
		JOINT LeftLeg
		{
			OFFSET 0.034277 -0.375199 -0.004496
			CHANNELS 3 Zrotation Yrotation Xrotation
			JOINT LeftFoot
			{
				OFFSET -0.013596 -0.397961 -0.043693
				CHANNELS 3 Zrotation Yrotation Xrotation
				JOINT LeftToe
				{
					OFFSET 0.026358 -0.055791 0.119288
					CHANNELS 3 Zrotation Yrotation Xrotation
					End Site
					{
						OFFSET 0.000000 0.000000 0.000000
					}
				}
			}
		}
	}
	JOINT RightUpLeg
	{
		OFFSET -0.067670 -0.090522 -0.004320
		CHANNELS 3 Zrotation Yrotation Xrotation
		JOINT RightLeg
		{
			OFFSET -0.038290 -0.382569 -0.008850
			CHANNELS 3 Zrotation Yrotation Xrotation
			JOINT RightFoot
			{
				OFFSET 0.015774 -0.398415 -0.042312
				CHANNELS 3 Zrotation Yrotation Xrotation
				JOINT RightToe
				{
					OFFSET -0.025372 -0.048144 0.123348
					CHANNELS 3 Zrotation Yrotation Xrotation
					End Site
					{
						OFFSET 0.000000 0.000000 0.000000
					}
				}
			}
		}
	}
	JOINT Spine
	{
		OFFSET -0.002533 0.108963 -0.026696
		CHANNELS 3 Zrotation Yrotation Xrotation
		JOINT Spine1
		{
			OFFSET 0.005487 0.135180 0.001092
			CHANNELS 3 Zrotation Yrotation Xrotation
			JOINT Spine2
			{
				OFFSET 0.001457 0.052922 0.025425
				CHANNELS 3 Zrotation Yrotation Xrotation
				JOINT Neck
				{
					OFFSET -0.002778 0.213870 -0.042857
					CHANNELS 3 Zrotation Yrotation Xrotation
					JOINT Head
					{
						OFFSET 0.005152 0.064970 0.051349
						CHANNELS 3 Zrotation Yrotation Xrotation
						End Site
						{
							OFFSET 0.000000 0.000000 0.000000
						}
					}
				}
				JOINT LeftShoulder
				{
					OFFSET 0.078845 0.121749 -0.034090
					CHANNELS 3 Zrotation Yrotation Xrotation
					JOINT LeftArm
					{
						OFFSET 0.090977 0.030469 -0.008868
						CHANNELS 3 Zrotation Yrotation Xrotation
						JOINT LeftForeArm
						{
							OFFSET 0.259612 -0.012772 -0.027456
							CHANNELS 3 Zrotation Yrotation Xrotation
							JOINT LeftHand
							{
								OFFSET 0.249234 0.008986 -0.001171
								CHANNELS 3 Zrotation Yrotation Xrotation
								End Site
								{
									OFFSET 0.000000 0.000000 0.000000
								}
							}
						}
					}
				}
				JOINT RightShoulder
				{
					OFFSET -0.081759 0.118833 -0.038615
					CHANNELS 3 Zrotation Yrotation Xrotation
					JOINT RightArm
					{
						OFFSET -0.096012 0.032551 -0.009143
						CHANNELS 3 Zrotation Yrotation Xrotation
						JOINT RightForeArm
						{
							OFFSET -0.253742 -0.013329 -0.021401
							CHANNELS 3 Zrotation Yrotation Xrotation
							JOINT RightHand
							{
								OFFSET -0.255298 0.007772 -0.005559
								CHANNELS 3 Zrotation Yrotation Xrotation
								End Site
								{
									OFFSET 0.000000 0.000000 0.000000
								}
							}
						}
					}
				}
			}
		}
	}
}
MOTION
Frames: 7
Frame Time: 0.050000
-0.141233 0.941220 0.020866 -0.710946 29.569466 -1.451820 11.953702 -1.820449 8.761656 -4.418198 -0.294992 -11.661663 0.113992 8.804036 15.086820 0.000000 0.000000 0.000000 -1.507509 -1.272463 9.002603 1.697452 -0.555212 -8.012443 -5.652804 -13.263781 9.920924 0.000000 0.000000 0.000000 -5.827465 -0.140194 7.582935 8.029101 -0.808188 -27.278722 -1.919044 -5.047572 25.740529 1.135229 2.881239 -24.085343 0.000000 0.000000 0.000000 0.378961 1.737555 -0.580544 25.075872 -51.173290 -16.745639 84.437141 -6.789750 -10.310440 0.000000 0.000000 0.000000 -9.266537 8.063200 1.235486 -21.860790 51.626469 -9.657685 -76.033979 -10.154345 10.972759 0.000000 0.000000 0.000000 
-0.139289 0.942136 0.024428 -0.974280 28.029381 -1.040499 12.021146 -1.744094 8.626383 -4.027130 -0.229071 -11.734147 1.174561 10.527443 16.304193 0.000000 0.000000 0.000000 -1.614146 -1.163417 8.517438 1.025901 -0.472891 -7.894888 -5.211429 -12.353642 9.956160 0.000000 0.000000 0.000000 -6.009891 -0.093606 6.600899 8.803392 -0.985911 -28.601855 -2.656595 -6.318894 26.151101 -1.766269 4.172150 -22.824711 0.000000 0.000000 0.000000 7.138709 2.015372 0.624642 35.145940 -47.545043 -19.263926 76.169048 4.955382 -0.331850 0.000000 0.000000 0.000000 -13.103834 6.060545 0.257221 -27.990790 49.599022 -11.500917 -74.297220 -18.421865 15.777773 0.000000 0.000000 0.000000 
-0.137786 0.942142 0.027089 -1.184940 26.093192 -1.140838 11.476623 -1.627176 9.727912 -3.370155 -0.187357 -12.610935 2.181680 12.013829 17.539306 0.000000 0.000000 0.000000 -1.394279 -1.129092 8.433773 0.300680 -0.375026 -7.496422 -4.762918 -11.548214 9.781566 0.000000 0.000000 0.000000 -6.248007 -0.070236 6.143657 9.541639 -1.156539 -29.384004 -2.857284 -7.376008 26.528465 -3.232892 4.685260 -22.144913 0.000000 0.000000 0.000000 11.389477 2.999169 0.823785 40.176452 -44.545713 -19.174252 68.079427 9.929152 3.049830 0.000000 0.000000 0.000000 -15.660244 4.773152 -0.083847 -32.793955 45.891954 -12.172930 -68.679374 -23.396734 16.673879 0.000000 0.000000 0.000000 
-0.136547 0.942323 0.028437 -1.167955 23.782763 -1.925142 11.091009 -1.505757 11.016373 -2.821317 -0.073131 -12.291508 2.546605 12.246523 17.458585 0.000000 0.000000 0.000000 -1.948171 -1.213736 9.392506 0.497571 -0.388199 -7.473429 -3.697992 -9.485029 9.597897 0.000000 0.000000 0.000000 -6.213248 -0.070387 6.062010 9.974593 -1.287796 -29.076937 -3.410999 -8.068738 26.387397 -5.198979 5.547376 -22.578514 0.000000 0.000000 0.000000 13.760789 4.015676 0.594822 42.052955 -42.898160 -18.239923 61.458912 11.121129 3.657313 0.000000 0.000000 0.000000 -16.850998 3.435530 -0.113590 -35.717856 43.732838 -12.807571 -63.571730 -23.614088 14.681876 0.000000 0.000000 0.000000 
-0.135797 0.942042 0.028559 -1.181984 22.027506 -1.965974 10.558302 -1.369745 11.985514 -2.716611 -0.062722 -13.206379 3.101307 13.018935 18.349469 0.000000 0.000000 0.000000 -2.102762 -1.202402 9.597642 -0.007709 -0.367493 -7.874151 -3.247781 -8.680498 9.301140 0.000000 0.000000 0.000000 -5.816435 -0.065104 5.677886 10.024675 -1.304751 -29.107823 -4.071346 -8.662961 26.269018 -5.572087 5.513504 -22.796625 0.000000 0.000000 0.000000 14.914133 4.096756 0.451869 41.470075 -42.746034 -17.362336 57.559379 10.864475 3.546384 0.000000 0.000000 0.000000 -17.594608 1.692493 -0.205694 -35.489591 42.211347 -12.504275 -60.006060 -20.374638 11.712931 0.000000 0.000000 0.000000 
-0.135235 0.942006 0.027946 -0.807300 19.944855 -1.924426 9.983616 -1.161723 12.519266 -2.577998 0.012477 -12.884279 3.340941 12.824109 17.055003 0.000000 0.000000 0.000000 -2.909419 -1.127474 9.694980 0.264867 -0.406431 -8.226146 -2.684557 -7.663656 9.295313 0.000000 0.000000 0.000000 -5.653041 -0.053077 5.043808 10.082400 -1.403206 -27.728220 -4.443531 -8.763136 25.421244 -6.005191 5.544544 -22.673703 0.000000 0.000000 0.000000 14.091355 4.539897 0.066026 39.769316 -43.299594 -16.543838 56.335361 7.616205 2.168199 0.000000 0.000000 0.000000 -16.205601 0.584451 -0.076022 -35.326970 41.116878 -12.452663 -59.276174 -16.107201 9.065568 0.000000 0.000000 0.000000 
-0.134873 0.941802 0.026821 -0.750565 19.130157 -1.676771 10.052514 -1.121436 12.409127 -2.924042 0.016569 -12.908365 3.157283 12.585784 17.284240 0.000000 0.000000 0.000000 -3.148171 -1.073828 9.536532 0.083491 -0.393023 -8.250986 -2.144066 -6.539453 8.880117 0.000000 0.000000 0.000000 -4.972824 -0.052218 4.380583 9.447967 -1.274288 -27.372476 -5.055883 -9.495829 25.656811 -6.028744 5.361504 -23.804910 0.000000 0.000000 0.000000 11.981953 4.021618 -0.192521 35.079352 -44.822256 -15.273968 59.737786 4.741461 1.045993 0.000000 0.000000 0.000000 -13.899021 -0.256915 -0.044130 -30.648672 40.770946 -11.262804 -63.192957 -11.516459 7.111234 0.000000 0.000000 0.000000 
